<!-------------------------
| Logo for Menhir VS Code |
|                         |
|  Designed in Inkscape   |
|     (c) dalps 2025      |
-------------------------->
<?xml version="1.0" encoding="UTF-8"?>
<svg
  id="svg1"
  width="100"
  height="100"
  version="1.1"
  viewBox="0 0 100 100"
  xml:space="preserve"
  xmlns="http://www.w3.org/2000/svg"
>
  <defs id="defs1">
    <clipPath id="clipPath2-1">
      <path
        id="path3-1"
        d="m50 85c14 0 20-5 20-5 0-20-5-20-5-25 0 0-3.3754-9.3916 0-20-0.0072-0.0556-0.0038-0.1135-0.02158-0.16634-2.9784-8.8337-5.9918-18.85-9.9784-23.834-2.7612-3.4516-10-4-10-4s-3 18-6 34c0 0-2.2629 9.2629-6 13 0 2-1.0764 6.1652-1 7 0.83933 9.173-2 19-2 19s5 5 20 5z"
        fill="#a0a0a0"
        stroke-linecap="round"
        stroke-linejoin="round"
        stroke-width="12"
        style="paint-order: stroke fill markers"
      />
    </clipPath>
  </defs>
  <g id="layer1">
    <g
      id="use55"
      transform="matrix(1.2846 0 0 1.2846 -14.228 -9.0894)"
      clip-path="url(#clipPath2-1)"
      stroke-linecap="round"
      stroke-linejoin="round"
      stroke-width="12"
    >
      <path
        id="path44"
        d="m50 85c14 0 20-5 20-5 0-20-5-20-5-25 0 0-3.3754-9.3916 0-20-0.0072-0.0556-0.0038-0.1135-0.02158-0.16634-2.9784-8.8337-5.9918-18.85-9.9784-23.834-2.7612-3.4516-10-4-10-4s-3 18-6 34c0 0-2.2629 9.2629-6 13 0 2-1.0764 6.1652-1 7 0.83933 9.173-2 19-2 19s5 5 20 5z"
        fill="#a0a0a0"
        style="paint-order: stroke fill markers"
      />
      <path
        id="path45"
        d="m33 54s-0.14127 8.1098 2.0629 9.8901c0.61828-0.69211 2.9369-1.4635 3.1435-1.8271 0.27367-0.48172 2.9168-1.6372 2.9168-1.6372 1.1045-3.3278 2.9037-6.1501 4.8286-9.0287 0 0-0.4146-7.8811 1.3238-11.838l-0.92903-7.6878-1.1471-3.3374 2.5598-12.941-0.31354-7.2759-2.4458-1.3174-8.4544 31.441z"
        fill="#848484"
        style="paint-order: stroke fill markers"
      />
      <path
        id="path46"
        d="m32 61s2.4804 4.8476 6.1258 5.7802c0 0 2.1982 9.824 1.3188 19.542l-14.507-7.1936z"
        fill="#5e5e5e"
        style="paint-order: stroke fill markers"
      />
      <path
        id="path47"
        d="m50.595 3.5968 0.02782 4.6208s6.5663 10.126 5.8169 9.6764c-0.83925-0.05995 1.2336 8.2072 1.0626 8.6164 0.55308 0.6562 4.8122 6.0043 3.9429 7.779l2.5034 5.0912 0.49541-2.4077-1.5774-8.4653-2.8226-5.3684-0.69691-9.7112z"
        fill="#b6b6b6"
        style="paint-order: stroke fill markers"
      />
      <path
        id="path48"
        d="m52.273 43.041c-2.5177 1.0191-6.3214 8.3558-6.3214 8.3558 0.59946 3.1772-2.4308 13.824-2.4308 13.824 1.7384 7.7331 0.23978 23.139 0.23978 23.139l27.395-4.436s-3.7655-13.78-3.3615-16.162c0.19173-1.1302-3.111-5.1622-4.6114-7.8168 0 0-3.1733-4.3288-6.0972-8.6294-0.5089-0.74851-1.0102-1.4962-1.486-2.22-1.887-2.8711-3.3714-5.3673-3.327-6.0554z"
        fill="#848484"
        style="paint-order: stroke fill markers"
      />
      <path
        id="path49"
        d="m68.418 64.619-7.3157-7.8975s1.32-3.6342 0.99031-4.2636c0.11989-1.6186 1.5352-4.5473 1.5352-4.5473l5.4304 5.0818z"
        fill="#b6b6b6"
        style="paint-order: stroke fill markers"
      />
      <path
        id="path50"
        d="m47.759 15.593-0.86029 7.6096-1.6995 5.3316 2.2942 6.6749-0.21808 4.3503 3.1991-7.0688c0.29973-7.4333-2.7154-16.898-2.7154-16.898z"
        fill="#b4b4b4"
        style="paint-order: stroke fill markers"
      />
      <path
        id="path51"
        d="m33 54s0.97402 3.7908 3.0118 7.7463c0.76564 1.4862 0.5165 4.2698 2.1141 5.0339l1.4797 17.256-11.071-1.0103-1.7984-18.344z"
        fill="#5e5e5e"
        style="paint-order: stroke fill markers"
      />
      <path
        id="path52"
        d="m40.937 30.422 1.7054 9.1686s-1.6289 5.0806-2.1164 6.437c-1.7442-0.19823-5.0513 5.7907-5.5849 5.3848-1.4113-1.0737 2.3571-9.6108 2.3571-9.6108l1.3661-11.241z"
        fill="#5e5e5e"
        style="paint-order: stroke fill markers"
      />
    </g>
  </g>
</svg>
