<?xml version="1.0" encoding="UTF-8" standalone="no"?>
<svg
  viewBox="0 0 32 32"
  version="1.1"
  id="svg2"
  xmlns="http://www.w3.org/2000/svg"
  xmlns:svg="http://www.w3.org/2000/svg"
>
  <path
    id="path2"
    d="m 13.089891,22.179775 0.123596,-0.123598 c 0.123595,-0.617975 0.370787,-1.235954 0.865169,-1.730336 H 13.95506 c -0.865169,0 -1.606743,-0.123595 -2.47191,-0.370785 -0.617977,-0.123598 -1.359551,-0.37079 -1.8539331,-0.86517 -0.3707866,-0.370786 -0.8651686,-0.24719 -1.1123606,0.247192 0,0.123596 -0.1235947,0.370785 -0.1235947,0.49438 -0.2471909,0.494383 -0.4943821,0.86517 -0.8651689,1.235958 -0.123596,0.247189 -0.24719,0.494381 -0.24719,0.865168 v 2.348313 c 0,0.247192 0.123594,0.370786 0.3707848,0.370786 0.6179791,0.123596 1.1123608,0.370788 1.6067428,0.494381 0.7415737,0.247191 1.4831467,0.61798 2.2247197,0.61798 0.49438,0 0.49438,0 0.617976,-0.494383 0,-0.123597 0.123595,-0.123597 0.123595,-0.24719 h -0.123595 0.123595 v -0.247192 0.123595 c 0,-0.123595 0.123596,-0.123595 0.123596,-0.247191 v -0.123594 c 0.123596,-0.247192 0.123596,-0.494381 0.123596,-0.617978 0,-0.247191 0,-0.49438 0.123596,-0.617976 v -0.123597 c 0.247191,-0.123596 0.370787,-0.494381 0.494382,-0.741573 z m 6.179776,2.348314 c -0.247193,-0.247192 -0.370788,-0.494381 -0.494384,-0.865169 0,-0.123594 0,-0.370785 -0.123594,-0.370785 0,-0.370787 -0.123596,-0.617978 -0.247191,-0.988765 -0.24719,-0.865168 -0.741574,-1.606742 -1.483147,-2.224719 -0.617978,-0.370788 -0.865169,-0.370788 -1.359552,0.123595 -0.123594,0.123595 -0.123594,0.247192 -0.247191,0.370787 -0.370784,0.617979 -0.741574,1.235954 -1.112357,1.977527 -0.123595,0.247192 -0.247191,0.370788 -0.247191,0.741575 -0.123595,0.123596 -0.123595,0.370785 -0.247191,0.617976 -0.370787,0.370786 -0.617977,0.988763 -0.865169,1.483144 0,0.123599 -0.123596,0.123599 0,0.247194 h 0.247192 c 0.494382,-0.123595 0.988764,-0.247194 1.483142,-0.494383 0.741574,-0.370787 1.606743,-0.370787 2.348317,-0.123595 0.741573,0.24719 1.235957,0.617978 1.853932,1.112358 0.370788,0.24719 0.741571,0.370788 1.112357,0.494382 h 0.247191 V 26.505617 C 19.764046,25.764044 19.640449,25.146064 19.269667,24.528089 Z M 32,25.640449 V 8.9550574 C 32,8.4606739 32,7.966292 31.876404,7.47191 31.752809,6.7303371 31.258429,6.1123594 30.64045,5.6179777 30.269663,5.3707864 29.898878,5.1235957 29.404496,5.1235957 c -0.123595,0 -0.123595,0 -0.123595,-0.1235955 H 9.876408 c 0,0.2471906 -0.3707865,0.2471906 -0.4943828,0.2471906 C 8.3932615,5.6179777 7.7752835,6.3595504 7.4044967,7.3483143 7.2809027,7.5955055 7.2809027,7.8426969 7.2809027,8.0898878 V 13.77528 c 0,0.370786 0,0.370786 0.3707848,0.247191 0.247192,-0.123595 0.3707871,-0.123595 0.617978,-0.247191 0.4943828,-0.123594 0.6179777,-0.617977 0.8651697,-0.865167 0.24719,-0.370786 0.3707863,-0.617977 0.7415728,-0.865169 0.247191,-0.247191 0.494382,-0.247191 0.865168,0 0.247192,0.123596 0.494382,0.370787 0.86517,0.494383 0.370784,0.123595 0.865167,0.24719 1.235954,0.123595 0.370787,0 0.494382,-0.370786 0.617978,-0.617978 0.123596,-0.247191 0.247191,-0.494381 0.370786,-0.617977 0.247192,-0.123596 0.370787,-0.123596 0.74157,-0.123596 0.741574,0.123596 1.235957,0.741573 1.730339,1.359551 0.123596,0.247191 0.247191,0.370784 0.494382,0.494381 0.247192,0.123595 0.494383,0.370786 0.741575,0.617977 0.617978,0.741574 1.483144,1.235957 2.101119,1.853933 0.370788,0.370787 0.865171,0.741573 1.483146,0.988765 0.741573,0.247192 1.359553,0.370787 1.97753,-0.494381 0.494381,-0.617979 0.86517,-1.359552 0.988764,-2.101126 0.123597,-0.370785 0.370788,-0.617976 0.617978,-0.988765 h 0.123596 c 0.617977,-0.123593 1.235954,0 1.730336,0.123597 0.247191,0 0.370784,0 0.617976,0.123595 0.494382,0.123597 0.988764,0.123597 1.483147,0.370788 0.494383,0.24719 0.617979,0.741573 0.494383,1.235955 -0.123595,0.494381 -0.247191,0.247191 -0.494383,0.247191 h -0.370786 c -0.494383,0.123596 -0.988763,0.370786 -1.483146,0.617977 -0.247191,0.123596 -0.494383,0.370788 -0.494383,0.617977 -0.123595,0.494384 -0.370787,0.865168 -0.741571,1.112358 -0.123596,0.123596 -0.247191,0.123596 -0.247191,0.370786 -0.247191,0.123596 -0.247191,0.370788 -0.494382,0.494383 -0.865168,0.86517 -1.97753,1.235953 -3.213484,1.35955 h -1.97753 c -0.247191,0 -0.247191,0.123595 -0.247191,0.247193 0.123596,0.494382 0,0.988764 0.123596,1.483146 0.123595,0.247191 0.123595,0.494382 0.123595,0.741573 0,0.494382 0.247191,0.988763 0.617979,1.359551 0.123595,0.123594 0.123595,0.247191 0.123595,0.370785 0,0.370786 0,0.865168 0.123597,1.235955 0.123594,0.494383 0.247191,1.112359 0.49438,1.606742 0.123595,0.123595 0.247191,0.247192 0.370787,0.123595 0.247192,-0.123595 0.494381,-0.123595 0.741573,-0.247192 0.61798,-0.247192 1.359551,-0.247192 2.101126,-0.247192 1.483145,0 2.842694,-0.24719 4.325841,0.123598 0.494383,0.123594 0.865169,0.123594 1.359551,0.247191 C 30.64045,27 31.258429,27 32,27 32.247193,27 32.494382,26.876403 32.494382,26.505617 31.876404,26.011236 32,25.887639 32,25.640449 Z"
    style="fill: #888e8e; fill-opacity: 1; stroke-width: 0.999994"
  />
</svg>
